<?xml version="1.0" encoding="UTF-8" standalone="no"?>
<!-- Created with Inkscape (http://www.inkscape.org/) -->

<svg
   xmlns:dc="http://purl.org/dc/elements/1.1/"
   xmlns:cc="http://creativecommons.org/ns#"
   xmlns:rdf="http://www.w3.org/1999/02/22-rdf-syntax-ns#"
   xmlns:svg="http://www.w3.org/2000/svg"
   xmlns="http://www.w3.org/2000/svg"
   xmlns:sodipodi="http://sodipodi.sourceforge.net/DTD/sodipodi-0.dtd"
   xmlns:inkscape="http://www.inkscape.org/namespaces/inkscape"
   id="svg3039"
   version="1.1"
   inkscape:version="0.48.2 r9819"
   width="440"
   height="440"
   sodipodi:docname="DuffLogo.svg">
  <metadata
     id="metadata3045">
    <rdf:RDF>
      <cc:Work
         rdf:about="">
        <dc:format>image/svg+xml</dc:format>
        <dc:type
           rdf:resource="http://purl.org/dc/dcmitype/StillImage" />
        <dc:title></dc:title>
      </cc:Work>
    </rdf:RDF>
  </metadata>
  <defs
     id="defs3043">
    <inkscape:path-effect
       effect="skeletal"
       id="path-effect4085"
       is_visible="true"
       pattern="M 0,5 C 0,2.24 2.24,0 5,0 7.76,0 10,2.24 10,5 10,7.76 7.76,10 5,10 2.24,10 0,7.76 0,5 z"
       copytype="single_stretched"
       prop_scale="1"
       scale_y_rel="false"
       spacing="0"
       normal_offset="0"
       tang_offset="0"
       prop_units="false"
       vertical_pattern="false"
       fuse_tolerance="0" />
    <inkscape:path-effect
       effect="skeletal"
       id="path-effect4081"
       is_visible="true"
       pattern="M 0,5 C 0,2.24 2.24,0 5,0 7.76,0 10,2.24 10,5 10,7.76 7.76,10 5,10 2.24,10 0,7.76 0,5 z"
       copytype="single_stretched"
       prop_scale="1"
       scale_y_rel="false"
       spacing="0"
       normal_offset="0"
       tang_offset="0"
       prop_units="false"
       vertical_pattern="false"
       fuse_tolerance="0" />
  </defs>
  <sodipodi:namedview
     pagecolor="#ffffff"
     bordercolor="#666666"
     borderopacity="1"
     objecttolerance="10"
     gridtolerance="10"
     guidetolerance="10"
     inkscape:pageopacity="0"
     inkscape:pageshadow="2"
     inkscape:window-width="872"
     inkscape:window-height="661"
     id="namedview3041"
     showgrid="false"
     inkscape:snap-object-midpoints="false"
     inkscape:snap-smooth-nodes="false"
     showguides="true"
     inkscape:guide-bbox="true"
     inkscape:snap-nodes="false"
     inkscape:zoom="0.53636364"
     inkscape:cx="267.92347"
     inkscape:cy="377.30393"
     inkscape:window-x="290"
     inkscape:window-y="0"
     inkscape:window-maximized="0"
     inkscape:current-layer="layer5" />
  <g
     inkscape:groupmode="layer"
     id="layer5"
     inkscape:label="Background"
     style="display:inline">
    <path
       style="fill:#c81318;fill-opacity:1;stroke:none"
       d="m -20.421941,-20.508475 0,490.338985 488.270041,-2.06894 0,-486.201104 z"
       id="path4112"
       inkscape:connector-curvature="0" />
  </g>
  <g
     inkscape:groupmode="layer"
     id="layer2"
     inkscape:label="Center"
     style="display:inline"
     sodipodi:insensitive="true">
    <path
       style="fill:#f3f3f3;fill-opacity:1;stroke:#000000;stroke-width:10;stroke-linecap:butt;stroke-linejoin:miter;stroke-opacity:1"
       d="m 18.644068,337.45763 c -3.95997,-5.27419 -5.127118,-19.11017 -5.127118,-19.11017 l 2.330508,-192.5 c 0,0 2.903566,-9.30238 6.525423,-12.11865 3.034233,-2.35934 11.186447,-2.79661 11.186447,-2.79661 l 370.084742,-3.26272 c 0,0 13.55105,1.40919 17.71187,6.05933 3.82059,4.2699 3.72881,16.77966 3.72881,16.77966 0,65.25424 0,130.50848 0,195.76271 0,0 -1.34783,12.6886 -5.59322,16.77967 -4.77934,4.6056 -19.11018,5.59322 -19.11018,5.59322 -122.11318,-2.00663 -244.23201,-1.86441 -366.355928,-1.86441 0,0 -11.781691,-4.52773 -15.381354,-9.32203 z"
       id="path3825"
       inkscape:connector-curvature="0"
       sodipodi:nodetypes="accaccaccacca" />
  </g>
  <g
     inkscape:groupmode="layer"
     id="layer3"
     inkscape:label="Text"
     style="opacity:1;display:inline">
    <path
       style="fill:none;stroke:#000000;stroke-width:32;stroke-linecap:butt;stroke-linejoin:miter;stroke-opacity:1"
       d="M 68.983051,357.9661 67.118644,83.898305 C 84.538472,82.429385 141.74949,125.11196 145.42372,205.08474 149.58863,295.7376 95.681599,355.57815 68.983051,357.9661 z"
       id="path3830"
       inkscape:connector-curvature="0"
       sodipodi:nodetypes="ccsc" />
    <path
       style="fill:none;stroke:#000000;stroke-width:32;stroke-linecap:round;stroke-linejoin:miter;stroke-opacity:1"
       d="m 190.16949,242.37288 c -4.40047,34.2525 -5.07716,63.07276 16.94403,63.90214 22.53446,0.8487 26.75784,-26.3442 22.20851,-63.90214"
       id="path3832"
       inkscape:connector-curvature="0"
       sodipodi:nodetypes="cac" />
    <path
       style="fill:none;stroke:#000000;stroke-width:32;stroke-linecap:round;stroke-linejoin:round;stroke-opacity:1"
       d="m 261.01694,339.32203 c 0,0 19.15954,44.83246 29.83051,-9.32203 10.67098,-54.1545 -7.71768,-150.82116 1.86441,-220 6.01399,-43.41863 25.2548,-8.8143 22.37289,11.18644"
       id="path3834"
       inkscape:connector-curvature="0"
       sodipodi:nodetypes="czsc" />
    <path
       style="fill:none;stroke:#000000;stroke-width:32;stroke-linecap:round;stroke-linejoin:miter;stroke-opacity:1"
       d="m 268.47458,266.61017 c 24.73858,-24.39889 115.44561,-45.48547 110,-52.20339"
       id="path3838"
       inkscape:connector-curvature="0"
       sodipodi:nodetypes="cc" />
    <path
       inkscape:connector-curvature="0"
       id="path4035"
       d="m 324.40677,337.45763 c 0,0 20.47584,26.71866 29.83051,-7.45763 18.41531,-67.27832 -14.64774,-178.26233 3.72882,-242.372875 6.99492,-24.403271 21.76567,3.100214 20.50848,16.779655"
       style="fill:none;stroke:#000000;stroke-width:32;stroke-linecap:round;stroke-linejoin:round;stroke-opacity:1"
       sodipodi:nodetypes="cssc" />
  </g>
</svg>
