<?xml version="1.0" encoding="UTF-8" standalone="no"?>
<!-- Created with Inkscape (http://www.inkscape.org/) -->

<svg
   xmlns:dc="http://purl.org/dc/elements/1.1/"
   xmlns:cc="http://creativecommons.org/ns#"
   xmlns:rdf="http://www.w3.org/1999/02/22-rdf-syntax-ns#"
   xmlns:svg="http://www.w3.org/2000/svg"
   xmlns="http://www.w3.org/2000/svg"
   xmlns:sodipodi="http://sodipodi.sourceforge.net/DTD/sodipodi-0.dtd"
   xmlns:inkscape="http://www.inkscape.org/namespaces/inkscape"
   width="744.09448819"
   height="1052.3622047"
   id="svg2"
   version="1.1"
   inkscape:version="0.48.2 r9819"
   sodipodi:docname="logoJosh.svg">
  <defs
     id="defs4" />
  <sodipodi:namedview
     id="base"
     pagecolor="#ffffff"
     bordercolor="#666666"
     borderopacity="1.0"
     inkscape:pageopacity="0.17254902"
     inkscape:pageshadow="2"
     inkscape:zoom="0.32"
     inkscape:cx="-25.099608"
     inkscape:cy="598.45476"
     inkscape:document-units="px"
     inkscape:current-layer="layer7"
     showgrid="false"
     inkscape:window-width="1148"
     inkscape:window-height="688"
     inkscape:window-x="105"
     inkscape:window-y="0"
     inkscape:window-maximized="0"
     inkscape:showpageshadow="false"
     showborder="true"
     showguides="false"
     inkscape:guide-bbox="true"
     inkscape:object-nodes="false"
     inkscape:snap-smooth-nodes="false"
     inkscape:snap-nodes="false"
     inkscape:snap-bbox="false"
     borderlayer="true">
    <sodipodi:guide
       position="0,0"
       orientation="0,744.09448"
       id="guide3002" />
    <sodipodi:guide
       position="744.09448,0"
       orientation="-1052.3622,0"
       id="guide3004" />
    <sodipodi:guide
       position="744.09448,1052.3622"
       orientation="0,-744.09448"
       id="guide3006" />
    <sodipodi:guide
       position="0,1052.3622"
       orientation="1052.3622,0"
       id="guide3008" />
    <sodipodi:guide
       position="0,0"
       orientation="0,744.09448"
       id="guide3010" />
    <sodipodi:guide
       position="744.09448,0"
       orientation="-1052.3622,0"
       id="guide3012" />
    <sodipodi:guide
       position="744.09448,1052.3622"
       orientation="0,-744.09448"
       id="guide3014" />
    <sodipodi:guide
       position="0,1052.3622"
       orientation="1052.3622,0"
       id="guide3016" />
    <sodipodi:guide
       position="0,0"
       orientation="0,744.09448"
       id="guide3018" />
    <sodipodi:guide
       position="744.09448,0"
       orientation="-1052.3622,0"
       id="guide3020" />
    <sodipodi:guide
       position="744.09448,1052.3622"
       orientation="0,-744.09448"
       id="guide3022" />
    <sodipodi:guide
       position="0,1052.3622"
       orientation="1052.3622,0"
       id="guide3024" />
    <sodipodi:guide
       position="0,0"
       orientation="0,744.09448"
       id="guide3026" />
    <sodipodi:guide
       position="744.09448,0"
       orientation="-1052.3622,0"
       id="guide3028" />
    <sodipodi:guide
       position="744.09448,1052.3622"
       orientation="0,-744.09448"
       id="guide3030" />
    <sodipodi:guide
       position="0,1052.3622"
       orientation="1052.3622,0"
       id="guide3032" />
    <sodipodi:guide
       position="0,0"
       orientation="0,744.09448"
       id="guide3034" />
    <sodipodi:guide
       position="744.09448,0"
       orientation="-1052.3622,0"
       id="guide3036" />
    <sodipodi:guide
       position="744.09448,1052.3622"
       orientation="0,-744.09448"
       id="guide3038" />
    <sodipodi:guide
       position="0,1052.3622"
       orientation="1052.3622,0"
       id="guide3040" />
  </sodipodi:namedview>
  <metadata
     id="metadata7">
    <rdf:RDF>
      <cc:Work
         rdf:about="">
        <dc:format>image/svg+xml</dc:format>
        <dc:type
           rdf:resource="http://purl.org/dc/dcmitype/StillImage" />
        <dc:title />
      </cc:Work>
    </rdf:RDF>
  </metadata>
  <g
     inkscape:groupmode="layer"
     id="layer2"
     inkscape:label="head"
     style="display:inline"
     sodipodi:insensitive="true">
    <path
       style="fill:none;stroke:#000000;stroke-width:15.30791569;stroke-linecap:butt;stroke-linejoin:miter;stroke-opacity:1"
       d="m 75.651462,325.19906 c 0,0 19.490128,-88.09537 46.571148,-144.86292 27.08102,-56.78806 72.21605,-120.223295 136.63604,-139.426189 64.41998,-19.202905 108.52921,-30.671304 172.12857,-21.869979 63.80451,8.821853 158.38291,32.127932 202.28699,76.54491 43.90407,44.416968 53.13623,107.729088 60.3168,155.818408 6.97542,48.08933 3.07739,94.27067 -2.87222,123.01347 -5.74445,28.72228 -22.77268,40.3343 -24.61912,106.60073 -2.05158,66.26642 -3.28254,152.76154 -10.87343,224.15694 -7.59089,71.39542 -70.98509,125.86519 -147.50947,150.34068 -76.72955,24.47549 -125.35228,42.71415 -185.87424,46.46856 -60.72714,3.75441 -108.73439,20.86469 -172.33375,-16.39222 C 86.114588,848.31401 51.853001,750.84288 59.238731,707.90305 66.829618,664.96323 49.391087,673.53888 51.032359,645.04228 53.083953,616.52515 73.599874,461.81458 70.31733,448.21253 L 59.238731,407.22172 75.651462,379.87399 z"
       id="path3595"
       inkscape:connector-curvature="0"
       sodipodi:nodetypes="czzzzzzzzzzzzzcccc" />
  </g>
  <g
     inkscape:groupmode="layer"
     id="layer3"
     inkscape:label="eyebrow-L"
     style="display:inline"
     sodipodi:insensitive="true">
    <path
       style="color:#000000;fill:#271f12;fill-opacity:1;fill-rule:nonzero;stroke:none;stroke-width:1px;marker:none;visibility:visible;display:inline;overflow:visible;enable-background:accumulate"
       d="m 256.39673,406.07283 c -21.54171,-6.01117 -10.87344,-24.18827 44.51955,-36.16958 18.66949,-4.02112 -3.28254,5.23156 8.82185,0 5.53931,-2.46191 52.11044,-30.52769 61.95808,-33.33836 36.51835,14.93558 51.70012,20.7621 87.80814,34.73345 -29.33777,-3.59029 -53.13623,2.56449 -70.57476,3.85699 -18.66949,1.43612 -113.65821,42.52951 -132.53286,30.89697 z"
       id="path4463"
       inkscape:connector-curvature="0"
       sodipodi:nodetypes="cssccscc" />
  </g>
  <g
     inkscape:groupmode="layer"
     id="layer4"
     inkscape:label="eyebrow-R"
     style="display:inline"
     sodipodi:insensitive="true">
    <path
       style="color:#000000;fill:#271f12;fill-opacity:1;fill-rule:nonzero;stroke:none;stroke-width:1px;marker:none;visibility:visible;display:inline;overflow:visible;enable-background:accumulate"
       d="m 69.907004,422.5266 16.412742,-10.97603 c 26.875864,10.52467 51.494964,7.52935 78.781144,9.15011 -30.15841,-24.12672 -50.67432,-21.91101 -76.934704,-27.42979 -57.239424,5.64188 -34.671913,28.96849 -18.259182,29.25571 z"
       id="path4465"
       inkscape:connector-curvature="0"
       sodipodi:nodetypes="ccccc" />
  </g>
  <g
     inkscape:groupmode="layer"
     id="layer5"
     inkscape:label="noes"
     style="display:inline"
     sodipodi:insensitive="true">
    <path
       style="fill:#613d30;stroke:#000000;stroke-width:0.95674479px;stroke-linecap:butt;stroke-linejoin:miter;stroke-opacity:1"
       d="m 159.56159,486.53626 c 3.28254,-29.25569 -30.77389,58.47038 -20.10561,85.9412 6.15479,15.94087 19.90045,20.86469 42.05765,29.2557 16.82304,1.43611 25.02943,-11.30427 38.36477,-12.80193 13.33535,-1.43612 23.79846,11.14015 34.6719,7.30367 -6.77025,-18.52588 -36.31318,-14.09444 -45.54535,-16.45377 -10.46311,5.82652 -20.72108,9.06803 -31.18419,5.49827 -6.97542,-5.25208 -18.05402,-8.20637 -21.95204,-16.47429 -11.69408,-24.82426 0,-47.43282 3.69287,-82.26885 z"
       id="path3137"
       inkscape:connector-curvature="0"
       sodipodi:nodetypes="saczcccas" />
  </g>
  <g
     inkscape:groupmode="layer"
     id="layer11"
     inkscape:label="beard-dark"
     style="display:inline"
     sodipodi:insensitive="true">
    <path
       style="color:#000000;fill:#15100a;fill-opacity:1;fill-rule:nonzero;stroke:none;stroke-width:1px;marker:none;visibility:visible;display:inline;overflow:visible;enable-background:accumulate"
       d="m 620.14402,416.76162 c 6.15477,23.12144 16.20757,50.26401 26.87585,77.93998 10.0528,40.60101 20.92624,69.26176 26.46554,105.20564 5.12898,34.56934 6.35993,67.21017 2.05159,96.91722 l -16.41273,58.51141 c 4.30834,58.55243 -10.66828,81.79697 -25.64491,111.54506 -45.34018,69.73361 -103.19508,126.17291 -168.23055,152.10507 -190.38775,48.5816 -245.78073,20.3723 -300.55824,3.6518 C 87.75586,995.94659 56.981977,947.65211 44.877581,886.16589 17.181092,824.28988 28.259688,763.2345 28.464848,710.95993 c -2.872223,-65.89714 2.051592,-95.99399 6.565099,-101.8 2.667064,-33.52302 11.899226,-54.3672 24.413945,-87.89021 3.692865,79.90951 -4.308347,128.51173 5.334138,138.97485 l 5.5393,56.68549 c 11.07859,2.74914 28.311963,30.26098 43.90407,51.20774 42.67312,68.48215 77.9605,46.34546 120.63362,9.1501 18.87464,96.42483 84.11528,42.20125 140.94438,-3.67236 42.05763,-9.58093 78.57598,-28.2299 106.06731,-62.16323 43.49375,-28.82486 95.60419,-37.52361 126.17291,-96.91721 15.79727,-58.49089 5.94963,-129.94784 12.51471,-197.77348 z"
       id="path4605"
       inkscape:connector-curvature="0"
       sodipodi:nodetypes="cccccccccccccccccccc" />
  </g>
  <g
     inkscape:groupmode="layer"
     id="layer8"
     inkscape:label="beard-shadow"
     style="display:inline"
     sodipodi:insensitive="true">
    <path
       style="color:#000000;fill:#babab2;fill-opacity:1;fill-rule:nonzero;stroke:none;stroke-width:1px;marker:none;visibility:visible;display:inline;overflow:visible;enable-background:accumulate"
       d="M 69.701846,564.70193 46.313703,731.39378 130.42897,837.46109 252.90902,866.7168 c 16.20759,-11.5915 85.34624,-23.16248 131.71222,-34.75397 141.97018,-81.30459 206.18501,-171.96445 243.31882,-235.89206 5.94962,-70.71838 -26.05521,-146.19645 18.25918,-212.1141 l -12.92503,-47.55591 -25.43975,82.28935 c 16.20758,64.07123 -5.33414,170.05648 -25.6449,208.46227 -14.15599,10.5657 -13.1302,-14.03288 -12.92503,-36.55936 -10.46312,92.85506 -82.88432,105.24668 -138.89278,138.97484 -15.79727,21.13141 -22.77268,28.8454 -38.56994,2.0516 -15.79725,14.03289 -32.00484,37.01072 -38.15961,51.04362 -13.54051,5.06742 -84.73075,61.48621 -124.53164,-13.31484 C 156.89452,815.83732 104.98924,766.41446 83.652675,706.61055 62.110959,646.80665 71.137971,576.64219 69.701846,564.76348 z"
       id="path4537"
       inkscape:connector-curvature="0"
       sodipodi:nodetypes="cccccccccccccccsc" />
  </g>
  <g
     inkscape:groupmode="layer"
     id="layer10"
     inkscape:label="beard-middle"
     style="display:inline"
     sodipodi:insensitive="true">
    <path
       style="fill:#291f15;stroke:none"
       d="M 64.367704,508.46779 37.081529,651.09447 c 4.308346,59.10637 9.232174,116.94075 18.259176,166.40464 l 18.259169,78.63753 69.548976,-36.5799 -14.77146,78.63753 75.08827,-43.88355 -18.25917,93.26537 93.14228,-56.68549 c 15.38694,-5.94961 25.02943,-4.41092 25.6449,9.12958 9.23217,11.24274 5.74446,34.44623 11.0786,54.85958 l 27.28617,-87.76712 c 29.33777,12.80195 52.72592,39.63676 151.81783,-12.80192 l 3.69286,-104.6312 c 49.44337,-33.97437 98.68158,-65.9792 148.12495,-125.78312 45.34018,-69.3438 -12.30956,-154.71056 -22.36236,-201.5484 9.027,77.05779 20.1056,188.13099 -32.62031,152.1871 -21.74688,54.71596 -26.46554,126.43962 -122.48006,126.17291 -45.7505,15.51004 -90.68036,34.6514 -131.50705,69.48743 -24.41394,14.48424 -42.46796,16.53583 -62.36839,21.95203 l -43.90408,-29.27622 c -38.77509,6.77026 -74.88311,40.0676 -146.278514,-63.98915 L 51.64784,651.09447 z"
       id="path3071"
       inkscape:connector-curvature="0"
       sodipodi:nodetypes="cccccccccccccccccccccccc" />
  </g>
  <g
     inkscape:groupmode="layer"
     id="layer9"
     inkscape:label="beard-light"
     style="display:inline"
     sodipodi:insensitive="true">
    <path
       style="fill:#372a1a;stroke:none"
       d="m 53.083953,678.23704 c 25.644905,46.5301 42.262795,94.31168 91.911327,126.46012 42.46796,22.9163 59.49618,-5.04691 84.11528,-18.27967 6.15477,28.8659 24.20879,48.70478 93.14228,29.2557 50.05886,-23.22402 99.91254,-69.9798 149.97138,-69.48743 33.85127,-15.44848 125.14712,-96.81462 117.76139,-133.64071 14.56631,18.0335 10.87344,22.09565 30.36356,-5.33414 l 18.25918,-104.22087 c 5.74446,36.04646 17.23337,64.23535 -14.56631,151.77678 -35.69771,52.50024 -81.44821,91.27534 -131.7122,124.347 l -25.64492,60.33732 -49.2382,-5.47775 -40.21121,14.62785 -40.41637,-18.30021 -12.71987,54.85958 c -35.28739,-3.42615 -58.47037,-23.3266 -84.11528,-36.55937 l 2.0516,58.5114 -11.0786,-10.976 -10.87344,12.80192 -21.95203,-32.90754 -25.6449,16.45378 -7.18058,-29.2557 -23.79846,47.53538 -20.10561,-53.03366 -67.702537,-54.85957 z"
       id="path3139"
       inkscape:connector-curvature="0"
       sodipodi:nodetypes="cccccccccccccccccccccccccc" />
  </g>
  <g
     inkscape:groupmode="layer"
     id="layer6"
     inkscape:label="mustache-L"
     style="display:inline"
     sodipodi:insensitive="true">
    <path
       style="color:#000000;fill:#271f12;fill-opacity:1;fill-rule:nonzero;stroke:none;stroke-width:1px;marker:none;visibility:visible;display:inline;overflow:visible;enable-background:accumulate"
       d="m 218.03197,645.61672 c 6.97541,30.89697 18.25916,55.9264 49.44336,53.03365 l 67.70254,16.45377 c 17.43853,10.50415 21.95204,34.03592 20.10561,64.00968 5.12898,16.31016 0,33.97437 38.36477,45.70946 14.97662,-2.07209 29.54293,-2.81066 49.23821,-23.77795 0,0 7.79604,-19.32599 2.05158,-25.60387 -9.84763,-10.68879 -26.46553,9.95023 -43.90405,0 -9.43734,-10.46311 -18.46434,-19.30547 -32.82548,-43.88355 l 16.41273,-23.75744 C 254.96062,629.7374 245.11298,644.24215 218.23712,645.61672 z"
       id="path4467"
       inkscape:connector-curvature="0"
       sodipodi:nodetypes="ccccccacccc" />
  </g>
  <g
     inkscape:groupmode="layer"
     id="layer7"
     inkscape:label="mustache-R"
     style="display:inline"
     sodipodi:insensitive="true">
    <path
       style="color:#000000;fill:#271f12;fill-opacity:1;fill-rule:nonzero;stroke:#000000;stroke-width:0.95674479px;stroke-linecap:butt;stroke-linejoin:miter;stroke-miterlimit:4;stroke-opacity:1;stroke-dasharray:none;stroke-dashoffset:0;marker:none;visibility:visible;display:inline;overflow:visible;enable-background:accumulate"
       d="m 174.1279,640.13898 c 3.69286,23.16246 0,43.88354 -10.87345,62.16323 l -29.33776,36.57989 c 3.89802,29.95324 -16.82306,67.70253 -47.596944,78.61701 -34.261584,12.20697 -78.3708167,-15.30488 -51.084649,-32.90754 21.74688,15.42797 50.879491,0.61548 69.548983,-21.95203 C 86.524914,754.864 83.447517,739.31293 99.244776,702.30221 122.22261,659.52652 179.46203,650.02764 174.1279,640.13898 z"
       id="path4469"
       inkscape:connector-curvature="0"
       sodipodi:nodetypes="cccscccc" />
  </g>
</svg>
